<svg width="231" height="40" viewBox="0 0 231 40" fill="none" xmlns="http://www.w3.org/2000/svg">
<path d="M34.7159 17.7153C33.4097 18.8419 32.7569 20.4089 32.9352 21.99L32.9045 21.9637C33.0878 23.8243 32.3049 25.6595 30.7647 26.9798C29.2246 28.3002 27.0838 28.9713 24.9134 28.8142L24.944 28.8405C22.3162 28.6308 19.8171 29.8562 18.6956 31.9043C17.5742 33.9524 18.0711 36.3834 19.9382 37.9825C21.8052 39.5816 24.6414 40.0054 27.0295 39.0422C29.4176 38.0789 30.8447 35.9354 30.5978 33.6829L30.6301 33.7091C30.4469 31.8485 31.2298 30.0133 32.7699 28.693C34.3101 27.3727 36.4509 26.7015 38.6213 26.8586L38.5889 26.8323C41.477 27.055 44.1644 25.5454 45.0792 23.1865C45.9939 20.8275 44.8958 18.2391 42.427 16.9351C39.9583 15.6311 36.7675 15.9542 34.721 17.7153H34.7159Z" fill="#5454D4"/>
<path d="M22.1572 25.3992L22.1248 25.3729C23.9703 25.5324 25.8018 24.9729 27.1139 23.849C28.4259 22.725 29.0799 21.1554 28.8954 19.5732L28.9277 19.5995C28.7445 17.7389 29.5274 15.9036 31.0675 14.5833C32.6077 13.263 34.7485 12.5919 36.9189 12.7489L36.8865 12.7227C39.5146 12.9342 42.0152 11.7102 43.1384 9.66241C44.2615 7.61461 43.766 5.18292 41.8995 3.58283C40.033 1.98275 37.1964 1.55796 34.8077 2.52082C32.4189 3.48367 30.9911 5.62734 31.2379 7.88029L31.2072 7.85256C31.3911 9.71329 30.6084 11.5488 29.0681 12.8693C27.5278 14.1897 25.3866 14.8607 23.2161 14.7031L23.2467 14.7308C21.4012 14.5714 19.5698 15.1309 18.2577 16.2548C16.9456 17.3787 16.2916 18.9484 16.4762 20.5306L16.4456 20.5043C16.6282 22.3648 15.8451 24.1997 14.3051 25.5199C12.7651 26.8401 10.6246 27.5114 8.45439 27.3548L8.48503 27.3811C5.85696 27.1695 3.35637 28.3936 2.2332 30.4414C1.11003 32.4892 1.60554 34.9209 3.47204 36.5209C5.33854 38.121 8.17512 38.5458 10.5639 37.583C12.9526 36.6201 14.3805 34.4764 14.1337 32.2235L14.166 32.2497C13.9828 30.3892 14.7657 28.5539 16.3058 27.2336C17.846 25.9133 19.9868 25.2422 22.1572 25.3992V25.3992Z" fill="#FF7143"/>
<path d="M10.7476 22.4702C12.054 21.3437 12.7063 19.7765 12.5266 18.1955L12.559 18.2218C12.3756 16.3606 13.1589 14.5249 14.6999 13.2044C16.2408 11.884 18.3826 11.2133 20.5535 11.3713L20.5212 11.345C23.1483 11.556 25.6477 10.332 26.7702 8.2849C27.8927 6.23776 27.3972 3.80702 25.5314 2.20753C23.6656 0.608032 20.8301 0.183276 18.4421 1.14554C16.0541 2.10781 14.6264 4.25045 14.8725 6.50261L14.8419 6.47634C15.0251 8.33694 14.2422 10.1722 12.7021 11.4925C11.1619 12.8128 9.02113 13.4839 6.85074 13.3269L6.88138 13.3531C3.9934 13.1311 1.30657 14.6412 0.392349 17.0001C-0.521877 19.359 0.576638 21.9471 3.04541 23.2508C5.51418 24.5545 8.70472 24.2313 10.751 22.4702H10.7476Z" fill="#5454D4"/>
<path d="M63.4835 7.91394H68.5397V29.007H63.4835V7.91394Z" fill="#19191B"/>
<path fill-rule="evenodd" clip-rule="evenodd" d="M76.8925 14.6877C73.5558 15.8826 71.3887 18.6842 71.4031 21.7842C71.3856 23.8169 72.3223 25.7702 74.0023 27.2047C75.6824 28.6392 77.9647 29.4343 80.3357 29.4111C83.9519 29.4111 87.2113 27.542 88.5918 24.6768C89.9722 21.8116 89.2014 18.5156 86.6393 16.3279C84.0772 14.1403 80.2292 13.4927 76.8925 14.6877ZM80.2639 18.5521C82.3915 18.5184 84.1533 19.9607 84.2121 21.7841C84.2696 22.6881 83.8834 23.5715 83.1471 24.2205C82.4107 24.8694 81.3914 25.2248 80.3357 25.2007C78.2078 25.2008 76.4772 23.731 76.4575 21.9069C76.4378 20.0828 78.1364 18.5858 80.2639 18.5521Z" fill="#19191B"/>
<path fill-rule="evenodd" clip-rule="evenodd" d="M109.42 28.2786V14.5601L104.498 14.5571V16.0312C103.298 14.7718 101.472 14.0749 99.5765 14.1529C94.9536 14.2779 91.2816 17.5266 91.2816 21.4916C91.2816 25.4566 94.9536 28.7053 99.5765 28.8303C101.472 28.9083 103.298 28.2114 104.498 26.952V28.2728C104.583 29.1442 104.201 30.0014 103.46 30.6026C102.72 31.2038 101.7 31.4839 100.69 31.3639C99.0916 31.5037 97.5601 30.7783 96.8475 29.544L92.5336 31.682C94.2213 34.0394 97.3038 35.3911 100.521 35.1846C105.004 35.1846 109.42 33.1327 109.42 28.2786ZM102.097 18.1548C103.618 18.7428 104.569 20.0646 104.5 21.4937C104.531 22.4165 104.106 23.3077 103.329 23.9471C102.553 24.5866 101.497 24.9147 100.423 24.8504C98.7541 24.8521 97.252 23.984 96.6281 22.6574C96.0043 21.3307 96.3841 19.8122 97.5876 18.8215C98.791 17.8307 100.576 17.5668 102.097 18.1548Z" fill="#19191B"/>
<path fill-rule="evenodd" clip-rule="evenodd" d="M117.773 14.6877C114.436 15.8826 112.269 18.6842 112.283 21.7842C112.266 23.8169 113.202 25.7702 114.883 27.2047C116.563 28.6392 118.845 29.4343 121.216 29.4111C124.832 29.4111 128.091 27.542 129.472 24.6768C130.852 21.8116 130.082 18.5156 127.52 16.3279C124.957 14.1403 121.109 13.4927 117.773 14.6877ZM121.144 18.5521C123.272 18.5184 125.033 19.9607 125.092 21.7841C125.15 22.6881 124.764 23.5715 124.027 24.2205C123.291 24.8694 122.272 25.2248 121.216 25.2007C119.088 25.2008 117.357 23.731 117.338 21.9069C117.318 20.0828 119.017 18.5858 121.144 18.5521Z" fill="#19191B"/>
<path fill-rule="evenodd" clip-rule="evenodd" d="M134.379 8.28557C133.246 8.6881 132.506 9.63641 132.506 10.6883C132.523 12.1187 133.872 13.2748 135.54 13.289C136.767 13.289 137.873 12.6553 138.343 11.6835C138.812 10.7117 138.553 9.59312 137.685 8.84933C136.818 8.10553 135.513 7.88303 134.379 8.28557ZM138.075 14.5601H133.017L133.01 29.0084H138.075V14.5601Z" fill="#19191B"/>
<path fill-rule="evenodd" clip-rule="evenodd" d="M157.729 27.0337C159.241 25.6021 160.025 23.7128 159.907 21.7842C160.026 19.8552 159.242 17.9653 157.73 16.5333C156.218 15.1013 154.102 14.2456 151.851 14.1558C149.954 14.0671 148.111 14.7138 146.831 15.9173V14.56H141.774V34.7862H146.831V27.6481C148.11 28.8525 149.954 29.4999 151.851 29.4111C154.101 29.3209 156.217 28.4653 157.729 27.0337ZM150.774 18.4324C152.976 18.4008 154.796 19.897 154.851 21.7842C154.927 22.7221 154.533 23.6433 153.767 24.3164C153.001 24.9895 151.937 25.3505 150.841 25.3087C148.639 25.3089 146.849 23.787 146.83 21.8993C146.812 20.0115 148.572 18.464 150.774 18.4324Z" fill="#19191B"/>
<path d="M175.51 24.6725C175.51 27.9956 172.14 29.4112 168.501 29.4112C165.492 29.6449 162.62 28.2827 161.253 25.9728L165.634 23.8348C165.999 24.9101 167.191 25.6205 168.494 25.5394C169.706 25.5394 170.314 25.2212 170.314 24.6448C170.314 23.054 162.021 23.8932 162.021 18.8946C162.021 15.7437 165.123 14.1559 168.628 14.1559C171.312 14.0831 173.83 15.2673 175.2 17.2469L170.886 19.2405C170.499 18.4668 169.61 17.9663 168.628 17.9694C167.752 17.9694 167.212 18.2612 167.212 18.7779C167.219 20.4256 175.51 19.3266 175.51 24.6725Z" fill="#19191B"/>
<path d="M193.979 14.5601V29.0084H188.923V27.6496C187.74 28.8658 185.948 29.5215 184.105 29.4126C180.7 29.4126 177.806 27.3329 177.806 23.429V14.5601H182.862V22.7941C182.777 23.4906 183.053 24.1841 183.618 24.6902C184.183 25.1962 184.978 25.4636 185.794 25.4211C187.648 25.4211 188.928 24.4973 188.928 22.4453V14.5644L193.979 14.5601Z" fill="#19191B"/>
<path d="M222.971 20.1366V29.007H217.915V20.5117C217.915 19.0668 217.107 18.143 215.489 18.143C213.804 18.143 212.859 19.1544 212.859 20.859V29.007H207.805V20.5117C207.805 19.0668 206.996 18.143 205.377 18.143C203.691 18.143 202.748 19.1544 202.748 20.859V29.007H197.692V14.5587H202.748V15.8867C203.813 14.6896 205.514 14.0373 207.265 14.1544C209.025 14.0806 210.701 14.8042 211.679 16.0604C212.818 14.7472 214.664 14.0274 216.567 14.1544C220.437 14.1559 222.971 16.5245 222.971 20.1366Z" fill="#19191B"/>
<path d="M227.248 14.4711C229.32 14.4711 231 13.031 231 11.2545C231 9.47807 229.32 8.03796 227.248 8.03796C225.176 8.03796 223.496 9.47807 223.496 11.2545C223.496 13.031 225.176 14.4711 227.248 14.4711Z" fill="#19191B"/>
</svg>
